<svg width="29" height="29" viewBox="0 0 29 29" fill="none" xmlns="http://www.w3.org/2000/svg">
<rect opacity="0.45" width="29" height="29" rx="4" fill="#2D8D45"/>
<path d="M17.6683 13.86L12.334 8.95643C12.2464 8.87508 12.1422 8.81052 12.0273 8.76645C11.9125 8.72239 11.7893 8.69971 11.6649 8.69971C11.5405 8.69971 11.4173 8.72239 11.3024 8.76645C11.1876 8.81052 11.0833 8.87508 10.9957 8.95643C10.8202 9.11904 10.7217 9.339 10.7217 9.56829C10.7217 9.79757 10.8202 10.0175 10.9957 10.1801L15.6609 14.5196L10.9957 18.8156C10.8202 18.9782 10.7217 19.1982 10.7217 19.4275C10.7217 19.6568 10.8202 19.8767 10.9957 20.0393C11.083 20.1213 11.1871 20.1866 11.302 20.2313C11.4168 20.276 11.5402 20.2992 11.6649 20.2997C11.7896 20.2992 11.9129 20.276 12.0278 20.2313C12.1426 20.1866 12.2467 20.1213 12.334 20.0393L17.6683 15.1358C17.7639 15.0545 17.8403 14.9559 17.8925 14.8461C17.9447 14.7363 17.9717 14.6177 17.9717 14.4979C17.9717 14.378 17.9447 14.2595 17.8925 14.1497C17.8403 14.0399 17.7639 13.9413 17.6683 13.86V13.86Z" fill="white"/>
</svg>
